# xmcd
#
# Track frame offsets:
#	150
#	7916
#	32414
#	57566
#	80529
#	99140
#	121399
#	145737
#	172058
#	191271
#	214062
#	237346
#	257690
#
# Disc length: 3843 seconds
#
# Revision: 2
# Processed by: cddbd v1.4b41PL1 Copyright (c) Steve Scherf et al.
# Submitted via: EZCDDA 4.3.2
#
DISCID=a50f010d
DTITLE=Ginuwine - Ginuwine...The Bachelor
DYEAR=1900
DGENRE=
TTITLE0=Intro
TTITLE1=Pony
TTITLE2=Tell Me Do U Wanna
TTITLE3=Holler
TTITLE4=Hello
TTITLE5=Lonely Daze
TTITLE6=Ginuwine 4 Ur Mind
TTITLE7=Only When Ur Lonely
TTITLE8=I'll Do Anything, I'm Sorry
TTITLE9=World Is So Cold
TTITLE10=When Doves Cry
TTITLE11=G. Thang
TTITLE12=550 What
EXTD=
EXTT0=
EXTT1=
EXTT2=
EXTT3=
EXTT4=
EXTT5=
EXTT6=
EXTT7=
EXTT8=
EXTT9=
EXTT10=
EXTT11=
EXTT12=
PLAYORDER=
